<?xml version="1.0" encoding="utf-8"?>
<!-- Generator: Adobe Illustrator 22.1.0, SVG Export Plug-In . SVG Version: 6.00 Build 0)  -->
<svg version="1.1" id="图层_1" xmlns="http://www.w3.org/2000/svg" xmlns:xlink="http://www.w3.org/1999/xlink" x="0px" y="0px"
	 viewBox="0 0 595.3 841.9" style="enable-background:new 0 0 595.3 841.9;" xml:space="preserve">
<style type="text/css">
	.st0{fill:#CF000E;}
	.st1{fill:#F6AA00;}
	.st2{fill:#C6000B;}
</style>
<path class="st0" d="M255,374.2h-9.1h-26.7v9.4h-15.4v-2.7c0-4.4-3-6.6-8.9-6.6h-27.3V368v-6v-43.5c0.1-10.7,5.3-16,15.5-16h20.7
	v-7.3h15.4v7.3h21.8c9.4,0,14.1,5.2,14,15.6v47.2L255,374.2z M203.8,323.8c0-6.1-3.1-9.2-9.5-9.2h-11.2V362h20.7V323.8z M219.3,362
	h17.9h2.4v-37.9c0-6.3-3.1-9.5-9.3-9.5h-11V362z"/>
<path class="st0" d="M300.9,325.2H349c8,0,12,4.2,12.2,12.5v37c-0.1,5.9-3.1,8.8-9,8.8h-22.8v-12.2h13.5c1.5,0,2.2-0.8,2.2-2.2
	v-25.1c0-3.9-2.2-5.8-6.6-5.8h-38l-5.1,44.7l-16.1,0.1l7.3-69.2H276v-12.2h35.9v-6.6H328v6.6h36.3v12.4h-62L300.9,325.2z"/>
<path class="st0" d="M396,329.5l9.5-0.1v45.9c0,5.5-3.4,8.2-10.2,8.2h-5.1v-48.7l-5.8,2.2l0.1-18.1c5.4-5.2,9-12.9,10.9-23.1h14.1
	C407.7,310.2,403.2,321.4,396,329.5 M472.3,362.1l-0.1,21.4H411v-6.2v-6v-9.5c0-8.7,4.5-13,13.6-13h34.2
	C467.7,349,472.3,353.4,472.3,362.1 M449,300h23.6v12.2h-61.5V300h22.6v-4.8H449V300z M472.6,328.1h-61v-11.4h61V328.1z
	 M472.6,344.1h-60.8v-11.4h60.8V344.1z M452.4,361.1h-26v10.3h30.5v-5.7C456.9,362.6,455.4,361.1,452.4,361.1"/>
<path class="st0" d="M508,312.8h-15.3v-6.4c0-5.2,2.8-7.8,8.4-7.9h28.4v-3.4h15.3v3.4h27.8c5.7,0,8.5,2.6,8.5,7.9v6.4h-15.2v-2.4
	c0-1.7-1.6-2.5-4.9-2.5H508V312.8z M577.4,361.4l0.2,22.2h-81.7v-4.5v-4.4v-13.6c0-8.5,4.3-12.7,13-12.7h54.9
	C573,348.4,577.5,352.7,577.4,361.4 M577.8,320.9H496v-6.4h81.8V320.9z M567.3,323.8c7,0,10.5,3.7,10.5,11.2v10.6h-8.9H496v-4.3
	v-6.7c0-7.2,3.4-10.8,10.2-10.8H567.3z M529.4,361.5v-1.1c0-2.1-2.2-3.1-6.7-3.1h-11.9v4.2H529.4z M522.7,370.1h-11.9v4.6h18.6v-1.4
	C529.4,371.1,527.2,370.1,522.7,370.1 M555.8,332.4h-44.5v4.8h49.1h2.2v-1.3C562.6,333.5,560.3,332.4,555.8,332.4 M562.5,361.5v-1.1
	c0-2.1-2.1-3.1-6.4-3.1h-11.8v4.2H562.5z M556.1,370.1h-11.8v4.6h18.2v-1.4C562.5,371.1,560.4,370.1,556.1,370.1"/>
<path class="st1" d="M124.8,284.5H79.5v27.6v0h36v0h0v55.2h0h-36V395h45.3c2.9,0,5.3-2.4,5.3-5.3v-100
	C130.1,286.8,127.7,284.5,124.8,284.5z"/>
<path class="st2" d="M34.1,367.4L34.1,367.4v-55.2v0h36v-27.6H24.8c-2.9,0-5.3,2.4-5.3,5.3v100c0,2.9,2.4,5.3,5.3,5.3h45.3v-27.6
	H34.1z"/>
<rect x="44.1" y="322.1" class="st1" width="26" height="35.2"/>
<rect x="79.5" y="322.1" class="st2" width="26" height="35.2"/>
</svg>
